<?xml version="1.0" standalone="no"?>
<!DOCTYPE svg PUBLIC "-//W3C//DTD SVG 20010904//EN"
 "http://www.w3.org/TR/2001/REC-SVG-20010904/DTD/svg10.dtd">
<svg version="1.0" xmlns="http://www.w3.org/2000/svg"
 width="1024.000000pt" height="1024.000000pt" viewBox="0 0 1024.000000 1024.000000"
 preserveAspectRatio="xMidYMid meet">

<g transform="translate(0.000000,1024.000000) scale(0.100000,-0.100000)"
fill="#000000" stroke="none">
<path d="M8525 9167 c-9 -21 -16 -101 -21 -234 l-7 -201 -36 -15 c-48 -19
-142 -97 -176 -147 -60 -87 -68 -131 -74 -415 l-6 -260 -27 -3 c-22 -3 -27 -9
-32 -40 -3 -20 -5 -224 -4 -452 l3 -415 -317 -1 -318 0 -14 50 c-8 28 -20 75
-27 104 -7 28 -16 52 -19 52 -3 0 -14 -39 -24 -87 -9 -49 -20 -96 -23 -106 -5
-18 -39 -19 -861 -17 -472 1 -1906 1 -3188 1 l-2332 -1 -17 -42 c-9 -24 -19
-49 -22 -56 -4 -10 634 -12 3196 -10 2553 2 3202 0 3206 -9 2 -7 2 -20 -1 -28
-5 -13 -372 -15 -3219 -15 l-3212 0 -35 -97 c-20 -54 -43 -119 -51 -146 l-16
-48 685 3 c376 2 684 1 684 -2 0 -3 -80 -45 -178 -93 l-177 -88 -532 1 -532 0
-10 -37 c-55 -207 -100 -437 -114 -586 l-5 -48 324 3 c202 2 324 -1 324 -7 0
-12 -75 -121 -108 -157 l-26 -28 -263 0 -263 0 0 -53 c0 -30 -3 -95 -6 -145
l-7 -92 223 0 223 0 -7 -42 c-3 -24 -12 -67 -18 -95 l-11 -53 -199 0 -200 0 7
-92 c10 -146 35 -379 46 -420 l10 -38 78 0 c90 0 91 -1 91 -81 l0 -49 -75 0
c-53 0 -75 -4 -75 -12 0 -7 14 -70 32 -141 l31 -129 34 7 33 6 0 -50 c0 -58
-8 -84 -22 -74 -7 4 -8 -4 -4 -23 4 -16 16 -83 26 -149 24 -152 51 -253 95
-356 19 -44 35 -83 35 -85 0 -2 -160 -4 -355 -4 -195 0 -355 -4 -355 -8 0 -4
26 -33 57 -64 l58 -57 400 -6 c285 -4 442 -10 545 -22 104 -13 135 -19 110
-23 -32 -6 -30 -7 25 -14 33 -5 80 -12 105 -16 25 -4 -134 -8 -352 -9 -218 0
-403 -4 -412 -7 -28 -11 -16 -38 35 -77 l50 -39 102 12 c71 8 271 11 662 8
l560 -4 135 -28 c74 -15 169 -35 210 -45 l75 -19 -165 -1 c-91 -1 -441 -1
-779 -1 -563 1 -615 -1 -632 -16 -28 -25 -24 -38 22 -69 l41 -27 957 -1 956
-2 113 -24 c61 -13 112 -27 112 -31 0 -4 -80 -8 -177 -9 -98 -1 -180 -5 -182
-7 -3 -3 -6 -51 -7 -107 -1 -56 -2 -105 -3 -108 0 -3 -34 -9 -75 -12 -127 -11
-142 -29 -38 -47 37 -6 77 -12 90 -13 12 -1 22 -7 22 -14 0 -10 -36 -13 -160
-13 l-161 0 1 138 c1 75 1 145 0 155 0 16 -34 17 -580 17 l-579 0 -6 -32 c-3
-18 -2 -388 2 -823 l8 -790 29 -54 c62 -119 162 -191 292 -211 43 -6 241 -9
524 -8 l455 3 5 180 5 180 83 3 82 3 0 -185 0 -184 658 -1 657 0 330 -94 c182
-52 377 -107 433 -122 l104 -29 141 37 c144 38 435 119 627 176 l105 30 560 3
560 3 1 197 c0 109 3 199 6 200 5 3 267 -182 492 -347 l69 -50 416 0 c399 0
418 1 467 21 112 46 188 121 236 234 23 55 23 56 23 530 0 464 -1 477 -22 546
-25 78 -80 160 -157 232 l-46 44 22 18 c25 21 57 35 102 45 46 10 26 15 -85
22 -100 5 -106 7 -143 39 -53 45 -193 116 -292 148 -83 27 -204 45 -309 47
-50 0 -56 2 -35 10 13 6 27 15 31 20 15 25 152 32 676 34 l543 1 40 33 c41 32
52 61 25 61 -8 0 -15 4 -15 10 0 6 -165 9 -460 7 -253 -1 -460 0 -460 3 0 3
15 15 33 28 31 21 44 22 200 22 l167 0 16 25 16 25 262 0 c145 0 266 -3 269
-7 4 -3 1 -13 -5 -22 -10 -13 -10 -14 2 -3 8 7 41 12 77 12 59 0 68 3 118 41
57 43 68 65 38 71 -10 3 -173 2 -362 0 l-343 -5 7 24 c20 64 22 66 72 72 26 4
266 6 532 6 l484 -1 66 66 66 66 -394 0 c-311 0 -392 3 -388 13 3 6 25 59 50
117 25 58 48 114 51 125 6 20 2 20 -274 17 l-280 -3 0 43 0 43 298 0 297 0 32
95 c17 52 35 112 38 133 l7 38 -336 -3 c-272 -2 -337 0 -341 10 -12 33 0 146
14 123 4 -7 127 -13 347 -17 l340 -7 12 29 c7 16 25 80 41 142 l29 112 -407 0
-407 0 -32 61 c-18 33 -32 62 -32 65 0 2 202 4 450 4 l449 0 5 33 c3 17 10 59
16 92 9 54 40 364 40 408 0 14 -9 17 -55 17 -53 0 -55 1 -45 20 6 11 7 20 3
20 -23 0 -272 -48 -281 -54 -21 -13 -13 3 54 104 l66 100 129 0 129 0 0 145 0
145 -137 2 c-76 2 -160 3 -186 2 -44 0 -48 2 -43 21 3 11 13 53 23 93 l17 72
153 0 153 0 0 33 c-1 95 -52 374 -111 600 l-10 37 -179 0 -180 0 0 93 0 92
150 -3 c82 -2 150 1 150 6 0 9 -65 213 -81 254 l-11 27 -152 3 c-143 3 -151 4
-151 23 0 19 8 20 141 23 l141 3 -21 54 -21 55 -117 0 -118 0 -6 26 c-4 14 -4
67 0 118 4 50 4 238 0 418 l-7 328 -34 6 -33 6 0 233 c0 128 -5 257 -10 286
-16 88 -64 174 -123 220 -28 23 -56 50 -62 62 -9 19 -28 28 -82 43 -10 3 -13
51 -13 198 0 156 -3 204 -16 236 -20 49 -31 50 -49 7z m3 -554 c-11 -13 -14
-334 -16 -1685 l-2 -1669 30 23 c58 43 133 20 171 -52 17 -31 19 -61 19 -303
l0 -268 -32 3 c-18 2 -34 9 -34 16 -1 6 -2 122 -3 257 l-1 246 -25 24 c-30 31
-66 32 -91 4 -17 -19 -19 -43 -24 -283 l-5 -261 -19 60 c-50 162 -166 278
-340 341 l-61 22 -3 203 c-1 112 0 214 3 226 3 15 22 28 65 45 l60 23 4 490
c5 521 12 694 27 709 5 6 9 212 9 508 l0 498 24 11 24 11 4 297 c4 275 6 300
26 351 30 75 72 124 135 153 54 26 77 26 55 0z m207 -347 l60 -21 0 -155 1
-155 -3 140 c-2 77 -7 142 -11 146 -4 4 -19 9 -33 12 l-25 6 4 -141 c3 -103 2
-139 -7 -134 -7 5 -11 53 -11 146 l0 138 -31 11 c-18 6 -36 11 -40 11 -5 0
-10 -62 -12 -137 l-3 -138 -2 153 -2 152 28 -6 c15 -4 54 -16 87 -28z m-590
-1421 c0 -20 -7 -20 -300 -20 l-300 0 -3 25 -3 25 303 -5 c295 -5 303 -6 303
-25z m-6075 -50 c0 -8 -7 -15 -15 -15 -8 0 -15 7 -15 15 0 8 7 15 15 15 8 0
15 -7 15 -15z m-1095 -84 c3 -5 1 -12 -5 -16 -5 -3 -10 1 -10 9 0 18 6 21 15
7z m3122 -71 c441 -34 1172 -152 1303 -209 24 -11 24 -11 -5 -5 -16 3 -93 19
-169 35 -77 16 -194 35 -260 44 -67 8 -155 20 -196 25 -339 44 -1088 43 -1481
-1 l-97 -11 -73 32 c-40 18 -111 40 -158 50 -81 16 -83 17 -45 23 21 3 111 11
199 17 88 6 180 12 205 14 77 7 641 -4 777 -14z m-2766 -23 c-1 -12 -15 -9
-19 4 -3 6 1 10 8 8 6 -3 11 -8 11 -12z m1511 -57 c59 -9 113 -23 187 -51 17
-7 21 -12 12 -22 -8 -10 6 -27 57 -73 98 -86 223 -222 412 -449 159 -191 220
-255 284 -301 l29 -21 -50 -64 c-28 -35 -61 -84 -73 -109 -18 -35 -25 -41 -32
-30 -202 346 -409 635 -566 790 -187 184 -297 235 -502 233 -125 0 -222 -20
-380 -75 -169 -60 -380 -173 -524 -280 -37 -28 -69 -48 -72 -46 -2 3 22 30 54
59 105 97 470 291 692 367 208 72 338 91 472 72z m3473 -26 c1108 -3 995 7
1015 -90 6 -30 16 -52 21 -48 8 4 -7 -40 -18 -55 -2 -3 -38 29 -80 70 -42 40
-73 65 -69 54 4 -11 10 -41 13 -67 l6 -48 -686 0 -686 0 -148 53 c-81 30 -209
73 -283 96 -132 42 -194 69 -108 48 28 -7 373 -11 1023 -13z m1412 -27 c-8
-12 -33 -53 -57 -90 -50 -78 -54 -76 -66 41 l-6 71 63 3 c78 4 84 2 66 -25z
m358 -67 l0 -85 -151 -3 -151 -3 -12 76 c-6 42 -11 82 -11 91 0 12 24 14 163
12 l162 -3 0 -85z m-3735 55 c157 -8 371 -24 475 -35 105 -11 249 -27 322 -35
262 -29 427 -68 603 -143 293 -125 780 -428 1110 -691 l25 -20 -36 -1 c-26 0
-59 14 -120 51 -97 59 -199 112 -205 106 -2 -2 30 -34 71 -71 77 -70 92 -92
53 -83 -13 4 -133 11 -268 17 -170 8 -254 15 -275 25 -16 8 -95 44 -175 80
-216 98 -340 165 -735 395 -219 127 -376 192 -664 275 -201 57 -435 111 -601
138 -58 10 155 6 420 -8z m-1563 -167 c97 -42 179 -104 278 -211 80 -85 199
-236 192 -243 -8 -8 -87 43 -80 51 5 4 3 5 -3 2 -6 -4 -49 7 -95 24 -89 33
-210 69 -231 69 -7 0 20 -20 60 -43 39 -24 69 -47 65 -52 -5 -4 -3 -5 4 -1 11
6 123 -49 123 -61 0 -10 -93 9 -162 32 l-68 23 0 -39 c0 -36 -2 -38 -37 -44
-21 -4 -45 -8 -53 -9 -8 -1 21 -6 65 -10 44 -4 98 -9 120 -12 32 -3 36 -2 18
6 -13 5 -23 14 -23 19 0 5 11 4 25 -2 14 -7 25 -15 25 -19 0 -5 7 -8 15 -8 8
0 15 -3 15 -8 0 -9 2 -9 -295 18 -236 22 -423 45 -432 54 -6 6 44 170 112 371
48 140 43 136 187 131 83 -4 108 -9 175 -38z m-536 -175 c-31 -93 -63 -192
-71 -221 -16 -60 -30 -72 -92 -72 -50 -1 -105 -12 -200 -42 -76 -23 -91 -43
-25 -33 l42 6 -65 -42 c-36 -23 -81 -54 -101 -70 -51 -40 -73 -39 -64 4 12 51
126 380 141 403 23 37 411 223 485 233 4 1 -19 -74 -50 -166z m-676 -95 c-7
-18 -27 -60 -42 -93 -16 -33 -34 -71 -40 -85 -11 -23 -12 -22 -12 20 -1 71 16
115 59 154 22 20 42 36 45 36 2 0 -2 -15 -10 -32z m114 -85 c-7 -21 -14 -42
-15 -48 -1 -5 -20 -59 -42 -120 l-41 -110 0 125 -1 126 53 36 c28 19 54 34 55
32 2 -1 -2 -20 -9 -41z m3520 13 c-3 -3 -11 5 -18 17 -13 21 -12 21 5 5 10
-10 16 -20 13 -22z m2661 4 c0 -5 -4 -10 -10 -10 -5 0 -10 5 -10 10 0 6 5 10
10 10 6 0 10 -4 10 -10z m-4955 -117 c15 -5 14 -8 -6 -19 -13 -7 -18 -13 -11
-14 7 0 10 -4 7 -10 -3 -5 -21 -9 -38 -9 -24 1 -26 3 -9 6 21 4 26 13 23 41
-2 13 9 15 34 5z m-1386 -267 c16 -19 120 -53 361 -117 107 -28 196 -52 197
-53 1 -1 -23 -37 -55 -79 -31 -42 -70 -103 -87 -135 -16 -31 -33 -62 -38 -68
-5 -8 -60 6 -185 46 l-177 58 -6 41 c-7 50 -32 79 -75 87 -44 8 -76 0 -112
-31 -26 -22 -36 -24 -76 -19 -26 4 -49 11 -52 16 -4 5 18 44 47 86 143 207
166 244 199 312 l35 73 6 -101 c3 -58 10 -107 18 -116z m5891 170 c0 -12 -5
-7 -19 24 -11 24 -11 24 3 6 9 -11 16 -24 16 -30z m-5263 -8 c-3 -8 -6 -5 -6
6 -1 11 2 17 5 13 3 -3 4 -12 1 -19z m5820 -35 c-3 -10 -5 -2 -5 17 0 19 2 27
5 18 2 -10 2 -26 0 -35z m-5700 -5 c-3 -8 -6 -5 -6 6 -1 11 2 17 5 13 3 -3 4
-12 1 -19z m5754 -44 c29 -3 55 -7 58 -9 8 -9 -23 -36 -74 -67 -47 -28 -53
-36 -58 -71 -7 -48 -16 -58 -46 -50 -26 7 -26 21 8 118 28 80 43 108 51 95 4
-6 31 -14 61 -16z m1089 -65 c-66 -60 -87 -72 -76 -43 3 9 6 37 6 62 l0 47 67
-4 68 -3 -65 -59z m-6863 19 c-3 -7 -5 -2 -5 12 0 14 2 19 5 13 2 -7 2 -19 0
-25z m731 4 c46 -24 127 -92 145 -121 10 -17 12 -34 7 -60 -4 -20 -11 -53 -14
-73 l-7 -38 -70 0 c-140 0 -393 36 -509 72 -59 18 -110 56 -110 81 0 5 57 6
128 3 141 -5 137 -1 -16 17 -56 7 -103 17 -104 22 -3 18 125 64 248 89 146 30
256 33 302 8z m937 -41 c28 -10 181 -53 340 -95 551 -146 784 -222 1220 -396
197 -78 267 -108 425 -180 231 -105 148 -40 -115 90 -202 100 -424 192 -680
282 -191 66 -271 91 -625 195 -85 24 -156 46 -157 47 -1 1 330 0 735 -1 563
-3 836 -8 1157 -24 l420 -21 85 -39 c197 -93 430 -244 641 -418 30 -25 39 -29
31 -14 -18 33 -196 197 -288 265 -79 58 -98 78 -74 78 18 0 11 39 -9 50 -30
15 -71 13 -71 -5 0 -17 -11 -20 -26 -5 -5 5 -34 23 -64 40 l-55 31 120 -6
c155 -8 237 -25 371 -79 238 -95 603 -287 683 -360 22 -20 127 -173 138 -202
14 -38 -33 -6 -98 66 -115 128 -223 209 -407 308 -130 70 -139 66 -18 -8 136
-83 430 -330 413 -346 -3 -3 -47 -1 -97 6 -525 63 -1155 60 -1720 -10 -179
-22 -243 -34 -317 -57 l-53 -17 -162 82 c-296 148 -606 245 -898 281 -113 15
-320 14 -417 -1 -108 -17 -132 -15 -258 21 -61 17 -156 41 -212 54 l-102 23
-36 72 c-38 76 -41 116 -9 143 8 6 14 18 14 27 0 26 93 142 114 142 6 0 34 -9
61 -19z m-1688 -73 c-3 -7 -5 -2 -5 12 0 14 2 19 5 13 2 -7 2 -19 0 -25z m25
-131 c103 -26 151 -44 205 -76 55 -33 101 -50 200 -73 70 -17 135 -37 144 -45
10 -8 47 -62 83 -121 94 -153 106 -167 140 -158 34 8 105 73 163 148 49 65 49
70 -11 127 -20 19 -36 38 -36 42 0 6 229 -46 237 -55 3 -2 -15 -37 -40 -78
-46 -76 -125 -273 -147 -368 -7 -30 -14 -58 -16 -62 -3 -3 -30 4 -62 17 -31
13 -163 62 -292 109 -380 138 -482 176 -501 187 -13 6 -19 21 -19 42 0 101
-128 166 -240 121 -53 -22 -51 -34 8 -34 57 0 150 -25 175 -48 20 -17 23 -52
4 -52 -6 0 -67 22 -133 49 -67 27 -136 52 -154 56 -28 6 -31 10 -25 33 7 28
165 272 177 272 3 0 67 -15 140 -33z m-793 -66 c15 -4 27 -17 32 -34 9 -32 8
-32 -66 -7 -32 11 -66 20 -77 20 -18 0 -24 11 -11 23 8 9 90 7 122 -2z m-234
-55 c8 -63 -9 -52 200 -119 77 -25 218 -74 314 -109 l173 -65 -3 -129 c-7
-282 5 -537 37 -774 9 -63 19 -149 24 -190 5 -41 16 -110 25 -153 9 -43 15
-82 13 -86 -2 -4 -55 8 -118 26 -63 19 -153 45 -199 58 -59 16 -90 31 -103 47
-46 59 -90 173 -133 338 -25 96 -66 234 -91 305 -66 187 -112 369 -121 476 -6
82 -8 89 -14 54 -4 -22 -8 -58 -8 -79 l-1 -39 -23 21 c-13 12 -36 24 -53 28
l-29 6 32 161 c17 89 36 170 42 179 6 10 11 36 11 58 0 59 17 49 25 -14z m201
-55 c46 -7 50 -25 7 -29 -24 -2 -37 4 -57 25 -31 33 -35 54 -6 28 11 -10 36
-21 56 -24z m2438 -50 c89 -22 188 -45 221 -51 57 -12 103 -29 78 -30 -6 0
-26 -12 -43 -26 -26 -23 -30 -31 -25 -58 4 -17 21 -56 37 -86 26 -46 50 -80
140 -197 7 -8 -16 -24 -76 -53 -142 -70 -284 -181 -334 -263 -13 -20 -26 -37
-30 -37 -3 0 -17 11 -31 24 -52 49 -130 80 -213 84 -102 5 -162 -15 -231 -78
-47 -43 -128 -149 -140 -183 -2 -7 -8 -9 -12 -5 -15 14 36 319 62 370 19 38
17 42 -22 61 -35 16 -47 48 -25 62 6 4 8 11 5 16 -4 5 12 64 35 132 43 125
103 251 142 299 21 26 26 27 63 18 72 -17 121 -12 152 15 16 14 41 25 57 25
16 0 102 -18 190 -39z m-1844 -114 c0 -8 17 -32 38 -54 32 -36 44 -42 94 -48
32 -4 70 -4 85 0 l27 6 -19 -21 c-17 -19 -28 -21 -78 -18 -69 5 -99 25 -145
96 -24 39 -29 52 -17 52 8 0 15 -6 15 -13z m2690 -48 c283 -35 645 -134 960
-263 80 -33 310 -157 310 -167 0 -3 -24 -23 -52 -43 -29 -20 -82 -56 -118 -81
-47 -33 -74 -45 -100 -45 -85 0 -715 104 -968 160 -146 32 -158 39 -238 132
-95 111 -180 266 -158 288 30 29 210 39 364 19z m-2500 -146 c80 -30 190 -71
245 -90 55 -19 150 -54 210 -78 89 -36 430 -163 483 -180 9 -3 10 -10 3 -22
-5 -10 -14 -52 -21 -93 -6 -41 -18 -115 -26 -165 -7 -49 -14 -136 -14 -191 0
-67 -5 -117 -16 -145 -32 -89 -44 -191 -45 -365 0 -114 -4 -174 -11 -174 -6 0
-54 13 -107 29 -103 32 -496 142 -700 197 -68 18 -129 35 -136 38 -11 4 -33
83 -65 236 -45 213 -88 955 -64 1078 l6 31 57 -25 c31 -14 121 -50 201 -81z
m6027 38 c61 -39 113 -96 113 -122 0 -8 -9 -25 -20 -39 -11 -14 -20 -33 -20
-42 0 -9 29 -55 63 -101 101 -133 101 -155 1 -47 -82 90 -97 112 -145 226 -23
54 -51 114 -61 132 -24 44 -7 42 69 -7z m-7063 -74 c30 -39 48 -86 86 -227 16
-58 51 -170 79 -250 27 -80 64 -203 81 -273 17 -71 38 -150 47 -175 14 -44 75
-155 107 -195 15 -19 227 -84 731 -222 94 -26 213 -60 265 -75 52 -16 156 -45
230 -65 74 -20 163 -45 196 -56 l61 -20 13 -62 c7 -34 21 -86 31 -115 15 -49
16 -53 0 -49 -9 2 -74 21 -146 42 -323 92 -413 118 -450 130 -22 7 -95 28
-162 46 -70 19 -119 37 -116 42 3 6 1 7 -5 3 -10 -6 -114 19 -262 64 -36 11
-112 34 -170 51 -58 17 -152 44 -210 61 -107 31 -130 42 -115 55 4 5 10 3 12
-4 2 -7 11 -9 19 -6 8 3 22 2 31 -2 10 -5 29 -7 43 -6 20 2 22 0 10 -8 -11 -8
-1 -11 39 -11 40 0 52 -3 48 -13 -4 -10 2 -13 21 -9 l26 5 -29 13 c-17 7 -66
22 -110 34 -44 12 -93 26 -110 31 l-30 9 -1 162 c-2 355 -110 710 -245 810
-33 25 -110 26 -145 3 -14 -9 -34 -30 -45 -48 l-21 -32 7 80 c12 160 32 223
88 283 40 41 69 41 101 -1z m6479 3 c444 -41 513 -61 578 -167 56 -93 252
-305 274 -297 19 8 50 -56 65 -133 15 -73 9 -281 -7 -291 -6 -4 -11 -18 -11
-32 1 -14 -11 -79 -26 -145 -36 -164 -42 -191 -49 -202 -12 -19 96 -284 133
-329 10 -11 9 -23 -4 -59 -10 -25 -21 -47 -26 -50 -11 -7 -116 104 -176 185
-26 35 -81 116 -122 178 -58 88 -78 112 -90 107 -64 -26 -1054 -75 -1517 -75
l-261 0 -129 -152 c-191 -225 -318 -348 -399 -388 l-67 -33 -192 7 c-106 3
-237 9 -292 13 -178 11 -95 -6 136 -28 331 -31 367 -26 634 83 140 58 52 49
970 98 314 17 723 39 910 50 l340 19 114 -39 c63 -22 116 -41 118 -43 2 -2 1
-11 -2 -19 -5 -12 -30 -17 -108 -21 -56 -3 -264 -17 -462 -31 -308 -21 -617
-40 -1010 -60 -49 -3 -162 -10 -250 -15 -88 -6 -241 -15 -340 -20 -99 -6 -207
-17 -240 -25 -279 -71 -311 -76 -462 -76 -161 1 -352 10 -678 35 -217 16 -599
53 -625 60 -8 2 -44 7 -80 11 -36 3 -67 8 -69 10 -2 2 -7 128 -11 281 -7 220
-13 301 -30 387 -21 107 -84 331 -99 351 -4 5 -18 35 -30 65 -28 65 -107 195
-157 255 l-35 44 34 53 c40 63 106 124 197 183 70 45 184 105 201 105 6 0 27
-13 47 -30 48 -38 150 -84 256 -114 227 -66 1081 -207 1162 -191 59 11 314
202 314 236 0 20 -60 65 -155 116 l-60 32 30 11 c47 18 319 58 514 76 422 38
916 44 1244 14z m-6498 -950 c3 -5 1 -10 -4 -10 -6 0 -11 5 -11 10 0 6 2 10 4
10 3 0 8 -4 11 -10z m2452 -132 c-2 -18 -4 -4 -4 32 0 36 2 50 4 33 2 -18 2
-48 0 -65z m4982 -68 c-7 -161 -20 -232 -34 -197 -4 10 -3 36 4 56 6 21 8 52
5 69 -6 31 22 242 30 230 2 -2 -1 -73 -5 -158z m-7422 23 c-3 -10 -5 -4 -5 12
0 17 2 24 5 18 2 -7 2 -21 0 -30z m140 -45 c-3 -8 -6 -5 -6 6 -1 11 2 17 5 13
3 -3 4 -12 1 -19z m2378 12 c3 -6 -1 -7 -9 -4 -18 7 -21 14 -7 14 6 0 13 -4
16 -10z m-84 -132 c-4 -35 -6 -38 -9 -15 -3 26 3 57 10 57 2 0 1 -19 -1 -42z
m-2335 -44 c-4 -14 -9 -24 -12 -21 -3 2 -2 17 2 31 3 15 9 25 11 22 3 -3 2
-17 -1 -32z m287 -361 c-7 -2 -21 -2 -30 0 -10 3 -4 5 12 5 17 0 24 -2 18 -5z
m5592 -412 c27 -6 -68 -9 -287 -10 -205 -1 -328 3 -328 9 0 19 529 21 615 1z
m-4875 -561 l0 -280 -230 0 -230 0 0 273 c0 151 3 277 7 280 3 4 107 7 230 7
l223 0 0 -280z m1470 0 l0 -280 -595 0 -595 0 0 80 0 80 395 0 395 0 0 200 0
200 200 0 200 0 0 -280z m670 -237 l0 -513 747 -1 748 -1 60 -70 c33 -39 93
-111 133 -160 l73 -88 -1100 0 -1101 0 0 675 0 675 220 -2 221 -3 -1 -512z
m3604 502 c98 -17 171 -52 240 -116 76 -69 106 -133 106 -223 0 -143 -89 -249
-250 -302 -47 -16 -106 -19 -420 -24 l-365 -5 85 -49 c47 -27 139 -79 205
-116 316 -178 758 -441 803 -477 l27 -22 -320 -1 -319 0 -276 183 c-239 159
-459 302 -675 438 -69 43 -63 42 -173 40 l-83 -1 56 -67 c31 -38 60 -73 65
-80 6 -7 10 -118 10 -263 l0 -250 -170 0 -170 0 0 455 0 455 756 2 756 3 30
34 c25 27 29 39 24 65 -4 17 -18 42 -31 56 l-25 25 -628 4 c-345 1 -727 0
-849 -4 l-223 -7 -2 -390 -3 -389 -45 32 c-25 18 -77 57 -117 86 l-72 53 -95
0 -96 0 0 435 0 435 1083 0 c882 -1 1096 -3 1161 -15z m-3102 -95 c20 -6 39
-18 43 -28 8 -20 7 -215 -1 -236 -9 -25 -61 -39 -117 -33 -75 9 -87 27 -87
137 0 108 13 148 48 156 15 3 32 7 37 9 19 6 40 5 77 -5z m231 -22 c3 -13 6
-78 7 -145 l1 -123 -31 0 -30 0 0 115 c0 108 -1 115 -20 115 -16 0 -20 7 -20
30 0 29 2 30 44 30 37 0 45 -3 49 -22z m317 7 c0 -25 -129 -275 -145 -281 -8
-4 -22 -4 -30 0 -13 4 -5 26 40 116 30 60 55 114 55 120 0 6 -31 10 -75 10
-73 0 -75 1 -75 25 l0 25 115 0 c96 0 115 -2 115 -15z m-1720 -920 l0 -305
-200 0 -201 0 2 163 1 162 -536 3 -536 2 0 -165 0 -165 -230 0 -230 0 0 305 0
305 965 0 965 0 0 -305z"/>
<path d="M8446 8256 l-28 -13 1 -139 c1 -76 3 -140 5 -141 1 -2 17 2 34 8 l32
11 0 98 c0 53 3 118 6 144 7 51 2 54 -50 32z"/>
<path d="M8340 8224 c-13 -4 -15 -27 -13 -146 1 -77 4 -143 7 -145 2 -2 15 -1
29 2 l26 7 3 144 c3 156 4 153 -52 138z"/>
<path d="M8120 5516 c0 -2 7 -7 16 -10 8 -3 12 -2 9 4 -6 10 -25 14 -25 6z"/>
<path d="M4975 6420 c11 -5 27 -9 35 -9 13 -1 13 0 0 9 -8 5 -24 9 -35 9 l-20
0 20 -9z"/>
<path d="M5048 6413 c7 -3 16 -2 19 1 4 3 -2 6 -13 5 -11 0 -14 -3 -6 -6z"/>
<path d="M5190 6390 c8 -5 20 -10 25 -10 6 0 3 5 -5 10 -8 5 -19 10 -25 10 -5
0 -3 -5 5 -10z"/>
<path d="M5328 6363 c7 -3 16 -2 19 1 4 3 -2 6 -13 5 -11 0 -14 -3 -6 -6z"/>
<path d="M5398 6343 c7 -3 16 -2 19 1 4 3 -2 6 -13 5 -11 0 -14 -3 -6 -6z"/>
<path d="M2900 5950 c0 -5 7 -10 16 -10 8 0 12 5 9 10 -3 6 -10 10 -16 10 -5
0 -9 -4 -9 -10z"/>
<path d="M5152 5484 c-30 -21 -28 -39 9 -54 64 -27 120 24 60 54 -37 20 -41
20 -69 0z"/>
<path d="M5817 5490 c4 -4 26 -13 48 -20 122 -36 613 -238 732 -300 70 -37
132 -64 118 -52 -15 13 -143 92 -205 125 -30 17 -57 33 -60 37 -10 15 -218
109 -305 138 -88 30 -344 86 -328 72z"/>
<path d="M3805 5251 c25 -10 238 -51 243 -46 7 6 -102 33 -163 40 -33 3 -69 8
-80 11 l-20 4 20 -9z"/>
<path d="M3555 4849 c-73 -26 -156 -80 -195 -127 -44 -54 -36 -60 15 -13 113
104 226 147 364 138 47 -3 112 -14 144 -26 31 -11 57 -18 57 -16 0 3 -26 17
-57 31 -49 23 -74 28 -163 31 -87 3 -115 0 -165 -18z"/>
<path d="M4443 4964 c-24 -11 -13 -53 33 -121 25 -37 53 -75 62 -83 13 -13 13
-13 0 8 -12 18 -14 32 -7 63 17 75 26 82 99 76 96 -8 492 -93 635 -136 17 -5
45 -12 63 -16 18 -4 32 -9 29 -11 -4 -5 -25 0 -312 64 -258 58 -393 84 -413
80 -9 -2 33 -14 93 -27 438 -91 737 -162 716 -169 -15 -5 -116 10 -271 39
-162 31 -342 60 -347 56 -2 -3 40 -14 94 -25 72 -15 83 -20 43 -16 -40 4 -51
2 -40 -5 12 -9 8 -11 -18 -9 -26 2 -30 5 -19 13 12 8 6 11 -26 12 -34 0 -37
-1 -17 -7 l25 -8 -25 -1 c-14 -1 -34 -8 -44 -16 -18 -14 -18 -17 -3 -55 8 -22
12 -40 7 -40 -4 0 -18 25 -30 55 -24 58 -55 78 -44 28 11 -50 25 -93 33 -97 4
-3 133 -26 287 -51 153 -25 331 -54 394 -66 63 -11 145 -23 182 -26 60 -5 70
-3 95 18 16 13 54 39 85 58 l57 35 -60 33 c-292 162 -903 336 -1224 348 -66 3
-126 2 -132 -1z m610 -231 c-7 -2 -19 -2 -25 0 -7 3 -2 5 12 5 14 0 19 -2 13
-5z m-206 -109 c-3 -3 -12 -4 -19 -1 -8 3 -5 6 6 6 11 1 17 -2 13 -5z"/>
<path d="M5030 4541 c270 -54 598 -105 632 -98 19 3 17 5 -7 6 -27 1 -139 19
-405 66 -86 15 -201 32 -275 40 -22 3 3 -4 55 -14z"/>
<path d="M1744 3471 c3 -5 28 -15 56 -22 27 -7 47 -16 45 -20 -4 -6 28 -15 85
-24 59 -10 199 -53 193 -59 -5 -5 2 -5 15 -2 15 5 22 3 22 -6 0 -10 2 -10 8 0
7 10 16 9 45 -3 20 -8 46 -15 57 -15 12 0 19 -4 16 -8 -3 -5 22 -14 55 -21 43
-10 57 -17 47 -23 -9 -7 -8 -8 6 -4 10 4 24 2 30 -2 6 -5 29 -12 51 -15 73
-12 206 -53 198 -61 -4 -5 3 -6 17 -3 14 4 32 7 40 8 8 0 -43 17 -115 38 -71
21 -185 55 -253 75 -68 20 -147 43 -175 51 -135 36 -315 87 -351 99 -66 22
-98 28 -92 17z"/>
<path d="M2770 3180 c35 -16 324 -99 328 -95 10 10 -161 62 -328 100 l-25 6
25 -11z"/>
<path d="M2720 3176 c0 -2 7 -7 16 -10 8 -3 12 -2 9 4 -6 10 -25 14 -25 6z"/>
<path d="M2770 3150 c8 -5 22 -10 30 -10 13 0 13 1 0 10 -8 5 -22 10 -30 10
-13 0 -13 -1 0 -10z"/>
<path d="M7174 4801 c-34 -17 -64 -37 -67 -45 -3 -8 3 -26 14 -40 49 -63 279
-90 369 -43 65 33 72 52 33 87 -41 37 -117 61 -213 67 -68 4 -80 2 -136 -26z
m220 3 c28 -9 62 -22 76 -28 31 -14 38 -57 14 -77 -16 -13 -16 -12 -6 8 15 27
7 50 -20 59 -14 4 -24 1 -30 -10 -8 -15 -14 -13 -51 14 -31 23 -51 30 -86 30
-46 0 -111 -29 -111 -50 0 -5 -7 -10 -15 -10 -31 0 -13 28 33 53 56 30 122 34
196 11z m-80 -22 c-6 -4 -13 -22 -16 -39 -5 -35 7 -43 32 -20 12 10 12 9 1 -5
-19 -25 -51 -23 -51 2 0 22 -16 27 -23 8 -2 -7 -8 -9 -13 -5 -5 5 -1 13 9 18
9 6 17 16 17 24 0 14 15 23 40 24 10 0 11 -2 4 -7z m40 -18 c9 -8 13 -20 10
-25 -3 -6 -12 -2 -20 8 -24 32 -17 44 10 17z m31 -54 c-3 -5 -14 -10 -23 -10
-15 0 -15 2 -2 10 20 13 33 13 25 0z m-130 -20 c3 -5 48 -10 98 -11 66 -1 83
-3 60 -9 -42 -10 -159 2 -175 18 -9 9 -9 12 -1 12 7 0 15 -4 18 -10z"/>
<path d="M7385 4780 c3 -5 11 -10 16 -10 6 0 7 5 4 10 -3 6 -11 10 -16 10 -6
0 -7 -4 -4 -10z"/>
<path d="M7020 4540 c-507 -15 -638 -35 -720 -112 -14 -13 -38 -34 -55 -46
-16 -13 -48 -40 -70 -60 -22 -21 -113 -104 -202 -186 -119 -107 -163 -154
-163 -170 0 -28 34 -75 136 -188 126 -138 79 -122 493 -169 185 -21 1370 21
1616 57 55 8 261 59 315 79 77 27 109 72 163 222 27 74 46 181 27 153 -5 -8
-10 -10 -10 -4 0 44 -252 348 -314 381 -74 39 -665 60 -1216 43z m1500 -456
c0 -7 -101 -52 -182 -79 l-66 -23 -56 29 -57 30 -252 -10 c-139 -6 -513 -16
-832 -22 l-580 -11 -65 -34 c-36 -18 -76 -37 -90 -42 -24 -9 -180 8 -334 37
-33 6 -61 11 -63 11 -2 0 -2 4 1 8 2 4 73 -2 158 -15 211 -30 211 -30 309 21
l85 45 610 11 c335 6 708 15 829 19 231 9 240 8 308 -36 27 -18 29 -17 145 24
123 44 132 46 132 37z"/>
<path d="M8370 4386 c0 -2 8 -10 18 -17 15 -13 16 -12 3 4 -13 16 -21 21 -21
13z"/>
<path d="M8470 4281 c0 -6 4 -13 10 -16 6 -3 7 1 4 9 -7 18 -14 21 -14 7z"/>
<path d="M8510 4223 c0 -5 9 -19 20 -33 11 -14 20 -32 21 -40 0 -8 3 -10 5 -4
3 6 -5 28 -17 48 -20 35 -29 44 -29 29z"/>
<path d="M4522 3946 l-37 -35 1 -203 c2 -254 17 -424 42 -482 32 -72 62 -83
258 -101 93 -8 212 -15 265 -17 113 -2 117 -1 234 124 97 103 155 181 155 208
0 17 -49 116 -95 191 -96 158 -119 188 -153 202 -80 34 -533 147 -589 147 -35
0 -50 -6 -81 -34z m416 -232 c34 -23 23 -25 -33 -8 -27 8 -76 14 -108 13 -56
-2 -61 0 -93 35 -19 20 -34 39 -34 40 0 8 247 -66 268 -80z m7 -47 c11 -5 23
-15 27 -21 12 -17 10 -296 -2 -296 -5 0 -10 4 -10 9 0 4 -22 6 -50 3 l-50 -5
0 137 0 136 24 0 c14 0 37 -5 51 -10 20 -8 26 -7 23 2 -7 19 -49 38 -84 38
-27 0 -32 -4 -38 -31 -11 -59 -7 -264 7 -281 6 -9 34 -18 61 -22 57 -7 58 -8
51 -28 -11 -27 -122 -37 -210 -19 -37 8 -38 9 -10 11 17 2 67 2 113 1 52 -1
82 2 82 8 0 6 -18 11 -39 11 -74 0 -71 -8 -71 190 0 133 3 180 13 183 16 7 87
-3 112 -16z"/>
<path d="M8515 3814 c-17 -42 -18 -44 -7 -44 4 0 13 18 19 40 13 50 8 51 -12
4z"/>
<path d="M8501 3748 c0 -9 -4 -25 -7 -35 -5 -17 -5 -17 6 0 6 10 9 25 7 35 -4
15 -5 15 -6 0z"/>
<path d="M5655 3410 c17 -4 41 -8 55 -8 22 0 22 1 -5 8 -16 4 -41 8 -55 8 -22
0 -22 -1 5 -8z"/>
<path d="M8281 3136 c2 -2 31 -6 64 -9 36 -3 52 -2 40 3 -19 8 -113 14 -104 6z"/>
<path d="M8463 3103 c9 -2 23 -2 30 0 6 3 -1 5 -18 5 -16 0 -22 -2 -12 -5z"/>
<path d="M7418 3083 c7 -3 16 -2 19 1 4 3 -2 6 -13 5 -11 0 -14 -3 -6 -6z"/>
<path d="M7190 3070 c-11 -8 -7 -9 15 -4 37 8 45 14 19 14 -10 0 -26 -5 -34
-10z"/>
<path d="M7098 3063 c7 -3 16 -2 19 1 4 3 -2 6 -13 5 -11 0 -14 -3 -6 -6z"/>
<path d="M6858 3053 c7 -3 16 -2 19 1 4 3 -2 6 -13 5 -11 0 -14 -3 -6 -6z"/>
<path d="M4668 3003 c7 -3 16 -2 19 1 4 3 -2 6 -13 5 -11 0 -14 -3 -6 -6z"/>
<path d="M4730 3001 c8 -6 28 -11 44 -11 39 0 31 6 -19 14 -29 5 -36 4 -25 -3z"/>
<path d="M4923 2983 c26 -2 68 -2 95 0 26 2 4 3 -48 3 -52 0 -74 -1 -47 -3z"/>
<path d="M4618 2963 c6 -2 18 -2 25 0 6 3 1 5 -13 5 -14 0 -19 -2 -12 -5z"/>
<path d="M4698 2953 c7 -3 16 -2 19 1 4 3 -2 6 -13 5 -11 0 -14 -3 -6 -6z"/>
<path d="M5013 2923 c15 -2 37 -2 50 0 12 2 0 4 -28 4 -27 0 -38 -2 -22 -4z"/>
<path d="M5265 2900 c32 -11 322 -16 332 -6 4 3 -48 6 -114 6 -66 0 -149 2
-184 5 -51 4 -58 3 -34 -5z"/>
<path d="M5828 2893 c7 -3 16 -2 19 1 4 3 -2 6 -13 5 -11 0 -14 -3 -6 -6z"/>
<path d="M5418 2863 c7 -3 16 -2 19 1 4 3 -2 6 -13 5 -11 0 -14 -3 -6 -6z"/>
<path d="M5520 2860 c0 -5 12 -10 28 -9 24 0 25 1 7 9 -27 12 -35 12 -35 0z"/>
<path d="M5638 2853 c23 -2 61 -2 85 0 23 2 4 4 -43 4 -47 0 -66 -2 -42 -4z"/>
<path d="M4820 2186 l0 -96 50 0 51 0 -3 93 -3 92 -47 3 -48 3 0 -95z"/>
<path d="M7893 2743 c9 -2 25 -2 35 0 9 3 1 5 -18 5 -19 0 -27 -2 -17 -5z"/>
<path d="M3208 2733 c6 -2 18 -2 25 0 6 3 1 5 -13 5 -14 0 -19 -2 -12 -5z"/>
<path d="M7988 2733 c12 -2 30 -2 40 0 9 3 -1 5 -23 4 -22 0 -30 -2 -17 -4z"/>
</g>
</svg>
